<svg width="80" height="14" viewBox="0 0 80 14" fill="none" xmlns="http://www.w3.org/2000/svg">
<path fill-rule="evenodd" clip-rule="evenodd" d="M78 2H2V12H78V2ZM0 0V14H80V0H0Z" fill="#0F0F0F"/>
<path d="M23 5H34V9H23V5Z" fill="#FF0000"/>
<path d="M64 5H75V9H64V5Z" fill="#0F0F0F"/>
<path fill-rule="evenodd" clip-rule="evenodd" d="M37 13V0L41 1.74846e-07V13H37Z" fill="#0F0F0F"/>
<path d="M49.203 9.06C49.0046 9.06 48.8238 9.02417 48.6605 8.9525C48.4971 8.88083 48.3663 8.77583 48.268 8.6375C48.1696 8.4975 48.1196 8.32667 48.118 8.125H48.508C48.508 8.315 48.5746 8.45833 48.708 8.555C48.843 8.65167 49.008 8.7 49.203 8.7C49.428 8.7 49.6046 8.63167 49.733 8.495C49.863 8.35667 49.928 8.18667 49.928 7.985C49.928 7.58167 49.668 7.38 49.148 7.38H48.308L48.443 5.86H50.183V6.215H48.758L48.838 6.08L48.733 7.175L48.683 7.13C48.763 7.11167 48.8538 7.09917 48.9555 7.0925C49.0571 7.08417 49.148 7.08 49.228 7.08C49.568 7.08 49.8371 7.15583 50.0355 7.3075C50.2338 7.45917 50.333 7.685 50.333 7.985C50.333 8.18833 50.2871 8.37167 50.1955 8.535C50.1038 8.69667 49.973 8.825 49.803 8.92C49.6346 9.01333 49.4346 9.06 49.203 9.06Z" fill="black"/>
<path d="M46.775 5.815H47.14V7.905H47.685V8.235H47.14V9H46.755V8.235H45.13V7.935L46.775 5.815ZM46.77 6.43L45.595 7.935H46.77V6.43Z" fill="black"/>
<path d="M10.6256 9.06C10.469 9.06 10.3173 9.03833 10.1706 8.995C10.0256 8.95 9.89479 8.885 9.77812 8.8C9.66312 8.71333 9.57229 8.60667 9.50562 8.48C9.43896 8.35333 9.40562 8.20667 9.40562 8.04H9.80562C9.80896 8.18333 9.84729 8.30417 9.92062 8.4025C9.99396 8.50083 10.0915 8.575 10.2131 8.625C10.3365 8.675 10.474 8.7 10.6256 8.7C10.859 8.7 11.0398 8.64333 11.1681 8.53C11.2965 8.41667 11.3606 8.275 11.3606 8.105C11.3606 7.99667 11.334 7.90083 11.2806 7.8175C11.2273 7.73417 11.1423 7.66917 11.0256 7.6225C10.9106 7.57417 10.759 7.55 10.5706 7.55H10.2156V7.24H10.4556C10.699 7.24 10.8906 7.19167 11.0306 7.095C11.1706 6.99833 11.2406 6.865 11.2406 6.695C11.2406 6.545 11.184 6.41833 11.0706 6.315C10.9573 6.21167 10.7956 6.16 10.5856 6.16C10.424 6.16 10.2798 6.19333 10.1531 6.26C10.0265 6.325 9.94062 6.445 9.89562 6.62H9.49562C9.52229 6.425 9.58563 6.2675 9.68563 6.1475C9.78563 6.0275 9.91229 5.94083 10.0656 5.8875C10.219 5.8325 10.389 5.805 10.5756 5.805C10.784 5.805 10.9698 5.84167 11.1331 5.915C11.2965 5.98833 11.4248 6.08917 11.5181 6.2175C11.6131 6.34583 11.6606 6.49333 11.6606 6.66C11.6606 6.825 11.6131 6.96667 11.5181 7.085C11.4248 7.20167 11.289 7.29167 11.1106 7.355C11.309 7.41167 11.4706 7.505 11.5956 7.635C11.7223 7.765 11.7856 7.93167 11.7856 8.135C11.7856 8.315 11.7381 8.475 11.6431 8.615C11.5498 8.75333 11.4165 8.8625 11.2431 8.9425C11.0698 9.02083 10.864 9.06 10.6256 9.06Z" fill="black"/>
<path d="M7.67152 9.06C7.51486 9.06 7.36319 9.03833 7.21652 8.995C7.07152 8.95 6.94069 8.885 6.82402 8.8C6.70902 8.71333 6.61819 8.60667 6.55152 8.48C6.48486 8.35333 6.45152 8.20667 6.45152 8.04H6.85152C6.85486 8.18333 6.89319 8.30417 6.96652 8.4025C7.03986 8.50083 7.13736 8.575 7.25902 8.625C7.38236 8.675 7.51986 8.7 7.67152 8.7C7.90486 8.7 8.08569 8.64333 8.21402 8.53C8.34236 8.41667 8.40652 8.275 8.40652 8.105C8.40652 7.99667 8.37986 7.90083 8.32652 7.8175C8.27319 7.73417 8.18819 7.66917 8.07152 7.6225C7.95652 7.57417 7.80486 7.55 7.61652 7.55H7.26152V7.24H7.50152C7.74486 7.24 7.93652 7.19167 8.07652 7.095C8.21652 6.99833 8.28652 6.865 8.28652 6.695C8.28652 6.545 8.22986 6.41833 8.11652 6.315C8.00319 6.21167 7.84152 6.16 7.63152 6.16C7.46986 6.16 7.32569 6.19333 7.19902 6.26C7.07236 6.325 6.98652 6.445 6.94152 6.62H6.54152C6.56819 6.425 6.63152 6.2675 6.73152 6.1475C6.83152 6.0275 6.95819 5.94083 7.11152 5.8875C7.26486 5.8325 7.43486 5.805 7.62152 5.805C7.82986 5.805 8.01569 5.84167 8.17902 5.915C8.34236 5.98833 8.47069 6.08917 8.56402 6.2175C8.65902 6.34583 8.70652 6.49333 8.70652 6.66C8.70652 6.825 8.65902 6.96667 8.56402 7.085C8.47069 7.20167 8.33486 7.29167 8.15652 7.355C8.35486 7.41167 8.51652 7.505 8.64152 7.635C8.76819 7.765 8.83152 7.93167 8.83152 8.135C8.83152 8.315 8.78402 8.475 8.68902 8.615C8.59569 8.75333 8.46236 8.8625 8.28902 8.9425C8.11569 9.02083 7.90986 9.06 7.67152 9.06Z" fill="black"/>
</svg>
