<svg width="30" height="35" viewBox="0 0 30 35" fill="none" xmlns="http://www.w3.org/2000/svg">
<path fill-rule="evenodd" clip-rule="evenodd" d="M14.873 1.43366C12.3902 1.73646 10.0049 2.70211 8.35355 4.35355L7.64642 3.64646C9.49508 1.7977 12.1098 0.763256 14.752 0.441014C17.3934 0.118858 20.1205 0.501028 22.2236 1.55261L21.7764 2.44703C19.8795 1.4986 17.3565 1.13077 14.873 1.43366Z" fill="white"/>
<path d="M6.89352 6.0231L7.46663 2.95365L9.01429 3.7313L6.89352 6.0231Z" fill="white"/>
<path d="M23.5721 3.49784L20.8124 2.03695L22.0155 0.790965L23.5721 3.49784Z" fill="white"/>
<path d="M27.5074 7.06076L26.3009 8.1725L26.017 7.86434L28.0226 6.01625L28.2969 6.31396L27.9835 6.60273L28.0076 6.62884C28.1528 6.582 28.3004 6.57798 28.4504 6.61679C28.6013 6.65479 28.7466 6.74953 28.8861 6.90099C29.0113 7.03679 29.0929 7.18128 29.131 7.33447C29.17 7.48685 29.1595 7.64307 29.0993 7.80313C29.04 7.96238 28.9251 8.12062 28.7544 8.27783L27.48 9.45214L27.1961 9.14398L28.4496 7.98892C28.6072 7.84374 28.6922 7.68973 28.7047 7.52689C28.7181 7.36324 28.659 7.21004 28.5275 7.06728C28.4368 6.96891 28.3345 6.90064 28.2205 6.86247C28.1072 6.82517 27.9892 6.82202 27.8665 6.85302C27.7438 6.88403 27.6241 6.95327 27.5074 7.06076Z" fill="white"/>
<path d="M24.7043 6.52356C24.5375 6.3425 24.4342 6.14392 24.3944 5.92784C24.3555 5.71264 24.3782 5.49534 24.4625 5.27596C24.5477 5.05745 24.6939 4.85274 24.901 4.66183C25.11 4.46933 25.3272 4.33915 25.5528 4.2713C25.7792 4.20433 25.9981 4.19903 26.2094 4.25542C26.4215 4.31268 26.611 4.43184 26.7778 4.61291C26.9447 4.79397 27.0476 4.99211 27.0865 5.20732C27.1263 5.4234 27.1031 5.64109 27.0171 5.86041C26.9319 6.08059 26.7848 6.28694 26.5759 6.47944C26.3687 6.67035 26.1523 6.79889 25.9268 6.86506C25.7021 6.93211 25.4836 6.937 25.2715 6.87974C25.0602 6.82335 24.8711 6.70462 24.7043 6.52356ZM24.9811 6.26849C25.1079 6.40602 25.2474 6.4867 25.3997 6.51052C25.552 6.53434 25.7053 6.51464 25.8595 6.45141C26.0137 6.38819 26.1579 6.29481 26.2919 6.17129C26.426 6.04776 26.5313 5.91133 26.6077 5.76199C26.6842 5.61265 26.7172 5.4607 26.7068 5.30614C26.6963 5.15157 26.6278 5.00552 26.501 4.86798C26.3743 4.73044 26.2343 4.65016 26.0811 4.62715C25.9279 4.60413 25.7738 4.62463 25.6187 4.68866C25.4636 4.75269 25.3191 4.84647 25.185 4.96999C25.0509 5.09352 24.9461 5.22955 24.8705 5.37808C24.7949 5.52662 24.7628 5.67777 24.7741 5.83153C24.7854 5.98529 24.8544 6.13095 24.9811 6.26849Z" fill="white"/>
<path d="M4.5632 5.82439L4.85197 6.03106L3.99632 7.22658L3.70755 7.0199L4.5632 5.82439ZM6.18161 8.24912L3.65773 6.44275C3.53067 6.35181 3.44615 6.24619 3.40415 6.12588C3.36216 6.00558 3.35409 5.88262 3.37994 5.75701C3.40579 5.6314 3.45661 5.51566 3.53239 5.40977C3.59233 5.32603 3.64798 5.26251 3.69934 5.21921C3.75071 5.17592 3.79147 5.14541 3.82162 5.12768L4.0459 5.43668C4.02772 5.44987 4.00328 5.46877 3.97257 5.49337C3.94255 5.51701 3.90998 5.55338 3.87484 5.60247C3.79424 5.71509 3.76442 5.81675 3.78538 5.90745C3.80704 5.99719 3.87274 6.08133 3.98247 6.15987L6.42549 7.90837L6.18161 8.24912Z" fill="white"/>
<path d="M3.51456 7.28972L3.80333 7.4964L2.94768 8.69192L2.65891 8.48524L3.51456 7.28972ZM5.13296 9.71445L2.60909 7.90808C2.48203 7.81714 2.3975 7.71152 2.35551 7.59121C2.31352 7.47091 2.30544 7.34795 2.33129 7.22234C2.35715 7.09674 2.40796 6.98099 2.48374 6.87511C2.54368 6.79136 2.59933 6.72784 2.6507 6.68455C2.70207 6.64125 2.74283 6.61074 2.77298 6.59302L2.99726 6.90201C2.97908 6.9152 2.95464 6.9341 2.92393 6.9587C2.89391 6.98234 2.86133 7.01871 2.8262 7.0678C2.74559 7.18042 2.71577 7.28208 2.73674 7.37278C2.7584 7.46252 2.82409 7.54666 2.93383 7.6252L5.37684 9.3737L5.13296 9.71445Z" fill="white"/>
<path d="M3.98018 11.4227C3.83688 11.6229 3.6635 11.7645 3.46004 11.8474C3.25728 11.9294 3.03991 11.9514 2.80795 11.9135C2.57667 11.8746 2.34649 11.7732 2.11739 11.6092C1.88638 11.4439 1.71468 11.2577 1.60232 11.0506C1.49064 10.8426 1.4409 10.6294 1.45307 10.411C1.46594 10.1917 1.54402 9.98191 1.68732 9.78169C1.83062 9.58148 2.00365 9.44039 2.20642 9.35843C2.40987 9.27551 2.62772 9.25384 2.85996 9.29341C3.09289 9.33202 3.32486 9.434 3.55588 9.59934C3.78497 9.76331 3.95487 9.94896 4.06559 10.1563C4.17699 10.3627 4.22625 10.5755 4.21339 10.7948C4.20121 11.0132 4.12347 11.2225 3.98018 11.4227ZM3.67408 11.2036C3.78293 11.0516 3.8335 10.8985 3.82581 10.7445C3.81811 10.5905 3.76761 10.4445 3.6743 10.3064C3.581 10.1683 3.46023 10.0462 3.312 9.9401C3.16376 9.834 3.00875 9.75872 2.84697 9.71426C2.68519 9.6698 2.5297 9.66841 2.3805 9.71011C2.2313 9.7518 2.10227 9.84868 1.99342 10.0008C1.88457 10.1529 1.83447 10.3062 1.84313 10.4609C1.85179 10.6156 1.90326 10.7623 1.99752 10.9011C2.09179 11.0399 2.21304 11.1624 2.36127 11.2685C2.50951 11.3745 2.66404 11.4495 2.82486 11.4933C2.98567 11.537 3.1402 11.5377 3.28844 11.4953C3.43668 11.453 3.56523 11.3557 3.67408 11.2036Z" fill="white"/>
<path d="M7.39467 31.352L8.67761 27.8283L9.05801 27.9668L8.90979 28.3739L8.95651 28.3909C9.00163 28.3569 9.06232 28.3148 9.13859 28.2645C9.21639 28.2134 9.31359 28.1783 9.4302 28.159C9.54833 28.139 9.69081 28.1594 9.85766 28.2201C10.0734 28.2987 10.244 28.4219 10.3693 28.5897C10.4947 28.7576 10.5675 28.9573 10.5877 29.1889C10.6079 29.4205 10.569 29.6708 10.471 29.94C10.3722 30.2114 10.2404 30.4299 10.0756 30.5953C9.91121 30.7597 9.72741 30.8666 9.52422 30.9161C9.32143 30.9645 9.11326 30.9498 8.8997 30.872C8.73508 30.8121 8.61319 30.7369 8.53404 30.6463C8.4553 30.5547 8.40199 30.4641 8.37411 30.3746C8.34664 30.2839 8.32695 30.21 8.31504 30.1528L8.28167 30.1406L7.78842 31.4954L7.39467 31.352ZM8.59816 29.2506C8.5277 29.4441 8.4939 29.6252 8.49676 29.7938C8.50003 29.9612 8.54098 30.1065 8.61962 30.2296C8.69865 30.3516 8.81714 30.4414 8.97509 30.4989C9.1397 30.5588 9.29287 30.5655 9.43457 30.5188C9.57779 30.4714 9.70414 30.3839 9.81361 30.2562C9.92461 30.1278 10.0133 29.9724 10.0797 29.79C10.1453 29.6098 10.1766 29.4373 10.1737 29.2724C10.1722 29.1069 10.1313 28.9616 10.0508 28.8366C9.97189 28.7108 9.849 28.6176 9.68216 28.5568C9.52199 28.4985 9.37262 28.4901 9.23406 28.5316C9.0959 28.572 8.97269 28.6544 8.86443 28.7787C8.75657 28.902 8.66782 29.0593 8.59816 29.2506Z" fill="white"/>
<path d="M13.03 31.9262C12.786 31.8938 12.5795 31.8072 12.4108 31.6665C12.2432 31.526 12.1217 31.3444 12.0462 31.1218C11.9719 30.8994 11.9534 30.6485 11.9905 30.3693C12.028 30.0877 12.1118 29.8486 12.2418 29.6522C12.373 29.4559 12.5379 29.3118 12.7364 29.22C12.936 29.1284 13.1579 29.0988 13.402 29.1313C13.646 29.1638 13.8519 29.2503 14.0194 29.3908C14.1882 29.5315 14.3096 29.7136 14.3838 29.9372C14.4591 30.161 14.478 30.4137 14.4405 30.6953C14.4034 30.9746 14.3192 31.2118 14.1882 31.4069C14.0583 31.6022 13.8935 31.7456 13.6939 31.8373C13.4954 31.9291 13.2741 31.9587 13.03 31.9262ZM13.0797 31.5531C13.2651 31.5778 13.4239 31.5506 13.5563 31.4714C13.6886 31.3923 13.7938 31.2792 13.8719 31.1319C13.95 30.9847 14.0011 30.8207 14.0251 30.64C14.0492 30.4593 14.0429 30.2871 14.0061 30.1234C13.9694 29.9597 13.8976 29.8218 13.7907 29.7096C13.6838 29.5975 13.5377 29.5291 13.3523 29.5044C13.1669 29.4797 13.008 29.5076 12.8755 29.5878C12.743 29.6681 12.6376 29.7825 12.5594 29.9309C12.4811 30.0793 12.4299 30.2438 12.4059 30.4245C12.3819 30.6052 12.3883 30.7769 12.4252 30.9394C12.462 31.1019 12.534 31.2387 12.641 31.3497C12.7481 31.4606 12.8943 31.5284 13.0797 31.5531Z" fill="white"/>
<path d="M17.072 32.0725L15.9209 29.4641L16.3581 29.4115L17.193 31.4141L17.2212 31.4107L17.5498 29.268L17.994 29.2145L18.814 31.2117L18.8422 31.2084L19.1786 29.0718L19.6158 29.0192L19.1169 31.8263L18.7079 31.8755L17.8651 29.8667L17.8228 29.8718L17.481 32.0232L17.072 32.0725Z" fill="white"/>
<path d="M22.9615 30.8471C22.7163 30.9415 22.4839 30.9688 22.2644 30.929C22.0455 30.8877 21.8504 30.7877 21.679 30.6292C21.5083 30.4691 21.3728 30.2587 21.2725 29.998C21.1721 29.7373 21.1312 29.4892 21.1497 29.2538C21.1688 29.0169 21.2425 28.8097 21.3708 28.6322C21.4998 28.4532 21.6791 28.3194 21.9089 28.231C22.0415 28.18 22.1809 28.1517 22.3272 28.1461C22.4734 28.1406 22.6187 28.1671 22.763 28.2257C22.9069 28.2832 23.0416 28.381 23.1671 28.5192C23.2926 28.6573 23.401 28.8452 23.4924 29.0827L23.5562 29.2484L21.5942 30.0035L21.4641 29.6655L23.0284 29.0634C22.9731 28.9198 22.8951 28.8027 22.7943 28.7121C22.6945 28.6211 22.5797 28.5633 22.4496 28.5385C22.3207 28.5133 22.1855 28.5279 22.0441 28.5823C21.8884 28.6423 21.7685 28.7328 21.6845 28.8539C21.6011 28.9735 21.5527 29.1063 21.5391 29.2523C21.5255 29.3983 21.5458 29.5415 21.5998 29.6818L21.6865 29.9071C21.7605 30.0994 21.8564 30.2496 21.9741 30.3577C22.0925 30.4643 22.2247 30.5295 22.3708 30.5532C22.5165 30.5757 22.6683 30.5566 22.8263 30.4958C22.929 30.4563 23.0163 30.4062 23.0881 30.3456C23.1606 30.2834 23.2159 30.2114 23.2542 30.1295C23.292 30.0464 23.3104 29.9543 23.3095 29.8532L23.7282 29.8138C23.7377 29.9573 23.7143 30.0957 23.6578 30.229C23.6009 30.3613 23.5138 30.4811 23.3965 30.5883C23.2789 30.6945 23.1339 30.7808 22.9615 30.8471Z" fill="white"/>
<path d="M25.9151 29.8919L24.5498 27.531L24.9002 27.3284L25.1064 27.685L25.131 27.6707C25.1065 27.529 25.1296 27.3892 25.2002 27.2513C25.2709 27.1133 25.3769 27.0035 25.5183 26.9217C25.5449 26.9063 25.5785 26.8875 25.6191 26.8655C25.6597 26.8434 25.6908 26.8274 25.7125 26.8176L25.9258 27.1865C25.9117 27.1906 25.8809 27.2022 25.8332 27.2216C25.7861 27.2393 25.7384 27.2621 25.6902 27.2899C25.5755 27.3563 25.4869 27.4396 25.4246 27.5399C25.3627 27.6386 25.3299 27.7451 25.3263 27.8594C25.323 27.972 25.3522 28.0816 25.4138 28.1882L26.2778 29.6822L25.9151 29.8919Z" fill="white"/>
</svg>
