<svg width="39" height="7" viewBox="0 0 39 7" fill="none" xmlns="http://www.w3.org/2000/svg">
<path d="M34.8497 6.70161V1.22189H35.4412V1.85496H35.5139C35.5588 1.78578 35.6211 1.69756 35.7007 1.59032C35.782 1.48135 35.8979 1.38448 36.0483 1.29973C36.2006 1.21324 36.4064 1.17 36.6659 1.17C37.0014 1.17 37.2972 1.25389 37.5532 1.42167C37.8092 1.58945 38.009 1.82729 38.1525 2.13518C38.2961 2.44307 38.3679 2.8063 38.3679 3.22489C38.3679 3.64694 38.2961 4.01278 38.1525 4.3224C38.009 4.63028 37.8101 4.86898 37.5558 5.0385C37.3015 5.20628 37.0083 5.29017 36.6762 5.29017C36.4202 5.29017 36.2153 5.24779 36.0613 5.16303C35.9074 5.07655 35.7889 4.97882 35.7059 4.86985C35.6228 4.75915 35.5588 4.66747 35.5139 4.59482H35.462V6.70161H34.8497ZM35.4516 3.21452C35.4516 3.51549 35.4957 3.781 35.5839 4.01105C35.6721 4.23937 35.801 4.41839 35.9705 4.54812C36.14 4.67612 36.3476 4.74012 36.5932 4.74012C36.8492 4.74012 37.0628 4.67266 37.2341 4.53774C37.407 4.4011 37.5368 4.21775 37.6233 3.9877C37.7115 3.75592 37.7556 3.49819 37.7556 3.21452C37.7556 2.9343 37.7123 2.68177 37.6258 2.4569C37.5411 2.23031 37.4122 2.05129 37.2393 1.91983C37.068 1.78664 36.8527 1.72005 36.5932 1.72005C36.3441 1.72005 36.1348 1.78318 35.9653 1.90945C35.7958 2.03399 35.6678 2.20869 35.5813 2.43355C35.4948 2.65668 35.4516 2.91701 35.4516 3.21452Z" fill="black"/>
<path d="M32.1092 5.29017C31.7494 5.29017 31.4337 5.20455 31.1621 5.03331C30.8923 4.86206 30.6813 4.6225 30.5291 4.31461C30.3786 4.00672 30.3033 3.64694 30.3033 3.23527C30.3033 2.82014 30.3786 2.45777 30.5291 2.14815C30.6813 1.83853 30.8923 1.5981 31.1621 1.42686C31.4337 1.25562 31.7494 1.17 32.1092 1.17C32.4689 1.17 32.7837 1.25562 33.0536 1.42686C33.3251 1.5981 33.5362 1.83853 33.6866 2.14815C33.8389 2.45777 33.915 2.82014 33.915 3.23527C33.915 3.64694 33.8389 4.00672 33.6866 4.31461C33.5362 4.6225 33.3251 4.86206 33.0536 5.03331C32.7837 5.20455 32.4689 5.29017 32.1092 5.29017ZM32.1092 4.74012C32.3824 4.74012 32.6073 4.67007 32.7837 4.52996C32.9602 4.38985 33.0908 4.20564 33.1755 3.97732C33.2603 3.749 33.3027 3.50165 33.3027 3.23527C33.3027 2.9689 33.2603 2.72068 33.1755 2.49063C33.0908 2.26058 32.9602 2.07464 32.7837 1.9328C32.6073 1.79096 32.3824 1.72005 32.1092 1.72005C31.8359 1.72005 31.611 1.79096 31.4346 1.9328C31.2581 2.07464 31.1275 2.26058 31.0428 2.49063C30.958 2.72068 30.9157 2.9689 30.9157 3.23527C30.9157 3.50165 30.958 3.749 31.0428 3.97732C31.1275 4.20564 31.2581 4.38985 31.4346 4.52996C31.611 4.67007 31.8359 4.74012 32.1092 4.74012Z" fill="black"/>
<path d="M29.6119 1.22189V1.7408H27.5466V1.22189H29.6119ZM28.1485 0.26709H28.7609V4.06553C28.7609 4.2385 28.7859 4.36823 28.8361 4.45472C28.888 4.53947 28.9537 4.59655 29.0333 4.62596C29.1146 4.65363 29.2002 4.66747 29.2902 4.66747C29.3576 4.66747 29.413 4.66401 29.4562 4.65709C29.4995 4.64845 29.534 4.64153 29.56 4.63634L29.6845 5.18639C29.643 5.20195 29.5851 5.21752 29.5107 5.23309C29.4363 5.25038 29.342 5.25903 29.2279 5.25903C29.0549 5.25903 28.8854 5.22184 28.7194 5.14747C28.555 5.07309 28.4184 4.95979 28.3094 4.80758C28.2022 4.65536 28.1485 4.46337 28.1485 4.23159V0.26709Z" fill="black"/>
<path d="M26.8843 2.11442L26.3343 2.27009C26.2997 2.17842 26.2487 2.08934 26.1812 2.00285C26.1155 1.91464 26.0255 1.84199 25.9114 1.78491C25.7972 1.72783 25.6511 1.69929 25.4729 1.69929C25.229 1.69929 25.0258 1.75551 24.8632 1.86794C24.7023 1.97864 24.6219 2.11961 24.6219 2.29085C24.6219 2.44307 24.6772 2.56328 24.7879 2.6515C24.8986 2.73971 25.0716 2.81322 25.3069 2.87203L25.8984 3.01733C26.2547 3.10381 26.5202 3.23614 26.6949 3.4143C26.8696 3.59073 26.957 3.81818 26.957 4.09667C26.957 4.32499 26.8913 4.5291 26.7598 4.70899C26.6301 4.88888 26.4485 5.03071 26.2149 5.13449C25.9814 5.23828 25.7099 5.29017 25.4003 5.29017C24.9938 5.29017 24.6573 5.20195 24.391 5.02552C24.1246 4.84909 23.9559 4.59137 23.885 4.25234L24.4662 4.10705C24.5216 4.32153 24.6262 4.48239 24.7802 4.58964C24.9358 4.69688 25.1391 4.7505 25.3899 4.7505C25.6753 4.7505 25.9019 4.68996 26.0697 4.56888C26.2392 4.44607 26.3239 4.29904 26.3239 4.1278C26.3239 3.98943 26.2755 3.87354 26.1786 3.78013C26.0818 3.685 25.933 3.61408 25.7324 3.56738L25.0682 3.4117C24.7032 3.32522 24.4351 3.19116 24.2638 3.00955C24.0943 2.8262 24.0096 2.59701 24.0096 2.32199C24.0096 2.09712 24.0727 1.89821 24.199 1.72524C24.327 1.55226 24.5008 1.41648 24.7205 1.31789C24.9419 1.2193 25.1927 1.17 25.4729 1.17C25.8673 1.17 26.1769 1.25648 26.4018 1.42945C26.6283 1.60243 26.7892 1.83075 26.8843 2.11442Z" fill="black"/>
<path d="M19.8479 1.65628C19.994 1.65628 20.1255 1.69038 20.2424 1.75857C20.3593 1.82676 20.4519 1.91931 20.5201 2.03621C20.5883 2.15311 20.6224 2.28462 20.6224 2.43075C20.6224 2.572 20.5883 2.70352 20.5201 2.82529C20.4519 2.94219 20.3593 3.03474 20.2424 3.10293C20.1255 3.17112 19.994 3.20522 19.8479 3.20522C19.7066 3.20522 19.5751 3.17112 19.4533 3.10293C19.3364 3.03474 19.2439 2.94219 19.1757 2.82529C19.1075 2.70352 19.0734 2.572 19.0734 2.43075C19.0734 2.28462 19.1075 2.15311 19.1757 2.03621C19.2439 1.91931 19.3364 1.82676 19.4533 1.75857C19.5751 1.69038 19.7066 1.65628 19.8479 1.65628Z" fill="black"/>
<path d="M15.8341 1.22189V1.7408H13.7688V1.22189H15.8341ZM14.3708 0.26709H14.9831V4.06553C14.9831 4.2385 15.0082 4.36823 15.0583 4.45472C15.1102 4.53947 15.1759 4.59655 15.2555 4.62596C15.3368 4.65363 15.4224 4.66747 15.5124 4.66747C15.5798 4.66747 15.6352 4.66401 15.6784 4.65709C15.7217 4.64845 15.7563 4.64153 15.7822 4.63634L15.9067 5.18639C15.8652 5.20195 15.8073 5.21752 15.7329 5.23309C15.6585 5.25038 15.5643 5.25903 15.4501 5.25903C15.2771 5.25903 15.1076 5.22184 14.9416 5.14747C14.7772 5.07309 14.6406 4.95979 14.5316 4.80758C14.4244 4.65536 14.3708 4.46337 14.3708 4.23159V0.26709Z" fill="black"/>
<path d="M11.1327 5.20714V1.22189H11.7243V1.82383H11.7658C11.8385 1.62664 11.9699 1.46664 12.1602 1.34383C12.3505 1.22102 12.5649 1.15962 12.8036 1.15962C12.8486 1.15962 12.9048 1.16048 12.9723 1.16221C13.0397 1.16394 13.0908 1.16654 13.1254 1.17V1.79269C13.1046 1.7875 13.057 1.77972 12.9827 1.76934C12.91 1.75723 12.833 1.75118 12.7517 1.75118C12.558 1.75118 12.385 1.79183 12.2328 1.87312C12.0824 1.95269 11.963 2.06339 11.8748 2.20523C11.7883 2.34534 11.7451 2.50533 11.7451 2.68522V5.20714H11.1327Z" fill="black"/>
<path d="M8.18856 5.30055C7.93602 5.30055 7.70683 5.25298 7.501 5.15784C7.29516 5.06098 7.1317 4.92174 7.01062 4.74012C6.88954 4.55677 6.829 4.33537 6.829 4.07591C6.829 3.84759 6.87398 3.66251 6.96392 3.52067C7.05387 3.37711 7.17408 3.26468 7.32457 3.18338C7.47505 3.10208 7.6411 3.04155 7.82272 3.00176C8.00607 2.96025 8.19029 2.92738 8.37537 2.90317C8.61753 2.87203 8.81385 2.84868 8.96433 2.83312C9.11655 2.81582 9.22725 2.78728 9.29644 2.74749C9.36735 2.70771 9.40281 2.63852 9.40281 2.53993V2.51917C9.40281 2.26318 9.33276 2.06426 9.19265 1.92242C9.05428 1.78059 8.84412 1.70967 8.56217 1.70967C8.26985 1.70967 8.04067 1.77367 7.87461 1.90167C7.70856 2.02966 7.59181 2.16631 7.52435 2.31161L6.94317 2.10404C7.04695 1.86188 7.18532 1.67334 7.3583 1.53843C7.533 1.40178 7.72326 1.30665 7.9291 1.25302C8.13667 1.19767 8.34077 1.17 8.54142 1.17C8.66942 1.17 8.81644 1.18557 8.98249 1.2167C9.15028 1.24611 9.312 1.30751 9.46768 1.40091C9.62508 1.49432 9.75567 1.63529 9.85946 1.82383C9.96324 2.01237 10.0151 2.26491 10.0151 2.58144V5.20714H9.40281V4.66747H9.37168C9.33017 4.75396 9.26098 4.8465 9.16411 4.94509C9.06725 5.04368 8.93839 5.12758 8.77752 5.19676C8.61666 5.26595 8.42034 5.30055 8.18856 5.30055ZM8.28196 4.7505C8.52412 4.7505 8.72823 4.70293 8.89428 4.6078C9.06206 4.51266 9.18833 4.38985 9.27308 4.23937C9.35957 4.08888 9.40281 3.93062 9.40281 3.76456V3.20414C9.37687 3.23527 9.31979 3.26381 9.23157 3.28976C9.14509 3.31397 9.04476 3.3356 8.9306 3.35462C8.81817 3.37192 8.70833 3.38749 8.60109 3.40132C8.49558 3.41343 8.40996 3.42381 8.34423 3.43246C8.1851 3.45322 8.03634 3.48695 7.89797 3.53365C7.76132 3.57862 7.65062 3.64694 7.56586 3.73862C7.48283 3.82856 7.44132 3.95137 7.44132 4.10705C7.44132 4.3198 7.52002 4.48066 7.67743 4.58964C7.83656 4.69688 8.03807 4.7505 8.28196 4.7505Z" fill="black"/>
<path d="M6.09474 1.22189V1.7408H4.02947V1.22189H6.09474ZM4.63141 0.26709H5.24373V4.06553C5.24373 4.2385 5.26881 4.36823 5.31897 4.45472C5.37086 4.53947 5.43659 4.59655 5.51615 4.62596C5.59745 4.65363 5.68307 4.66747 5.77302 4.66747C5.84048 4.66747 5.89583 4.66401 5.93907 4.65709C5.98231 4.64845 6.01691 4.64153 6.04285 4.63634L6.16739 5.18639C6.12588 5.20195 6.06793 5.21752 5.99356 5.23309C5.91918 5.25038 5.82491 5.25903 5.71075 5.25903C5.53778 5.25903 5.36826 5.22184 5.20221 5.14747C5.03789 5.07309 4.90124 4.95979 4.79227 4.80758C4.68503 4.65536 4.63141 4.46337 4.63141 4.23159V0.26709Z" fill="black"/>
<path d="M3.36721 2.11442L2.81716 2.27009C2.78256 2.17842 2.73154 2.08934 2.66408 2.00285C2.59835 1.91464 2.50841 1.84199 2.39425 1.78491C2.28008 1.72783 2.13392 1.69929 1.95576 1.69929C1.71187 1.69929 1.50863 1.75551 1.34604 1.86794C1.18518 1.97864 1.10475 2.11961 1.10475 2.29085C1.10475 2.44307 1.1601 2.56328 1.2708 2.6515C1.3815 2.73971 1.55447 2.81322 1.78971 2.87203L2.38127 3.01733C2.73759 3.10381 3.0031 3.23614 3.1778 3.4143C3.3525 3.59073 3.43985 3.81818 3.43985 4.09667C3.43985 4.32499 3.37413 4.5291 3.24267 4.70899C3.11294 4.88888 2.93132 5.03071 2.69781 5.13449C2.4643 5.23828 2.19273 5.29017 1.88312 5.29017C1.47663 5.29017 1.1402 5.20195 0.87383 5.02552C0.607454 4.84909 0.438808 4.59137 0.367889 4.25234L0.949072 4.10705C1.00442 4.32153 1.10907 4.48239 1.26301 4.58964C1.41869 4.69688 1.62193 4.7505 1.87274 4.7505C2.15814 4.7505 2.38473 4.68996 2.55251 4.56888C2.72202 4.44607 2.80678 4.29904 2.80678 4.1278C2.80678 3.98943 2.75835 3.87354 2.66149 3.78013C2.56462 3.685 2.41587 3.61408 2.21522 3.56738L1.55101 3.4117C1.18604 3.32522 0.917937 3.19116 0.746696 3.00955C0.577184 2.8262 0.492429 2.59701 0.492429 2.32199C0.492429 2.09712 0.555563 1.89821 0.681832 1.72524C0.80983 1.55226 0.983666 1.41648 1.20334 1.31789C1.42474 1.2193 1.67555 1.17 1.95576 1.17C2.35014 1.17 2.65976 1.25648 2.88462 1.42945C3.11121 1.60243 3.27207 1.83075 3.36721 2.11442Z" fill="black"/>
</svg>
